<svg width="96" height="96" viewBox="0 0 96 96" xmlns="http://www.w3.org/2000/svg">
  <!-- Rear wheel -->
  <circle cx="26" cy="60" r="16" 
          fill="none" 
          stroke="#333" 
          stroke-width="2"/>
  
  <!-- Rear hub -->
  <circle cx="26" cy="60" r="2" 
          fill="#333"/>
  
  <!-- Front wheel -->
  <circle cx="70" cy="60" r="16" 
          fill="none" 
          stroke="#333" 
          stroke-width="2"/>
  
  <!-- Front hub -->
  <circle cx="70" cy="60" r="2" 
          fill="#333"/>
  
  <!-- Bottom bracket (center point) -->
  <circle cx="46" cy="60" r="3" 
          fill="none" 
          stroke="#333" 
          stroke-width="1.5"/>
  
  <!-- Chain stay - rear wheel to bottom bracket -->
  <line x1="46" y1="60" x2="26" y2="60" 
        stroke="#333" 
        stroke-width="1.5"
        stroke-linecap="round"/>
  
  <!-- Seat tube - bottom bracket up -->
  <line x1="46" y1="60" x2="42" y2="30" 
        stroke="#333" 
        stroke-width="1.5"
        stroke-linecap="round"/>
  
  <!-- Down tube - bottom bracket to head tube (more angled) -->
  <line x1="46" y1="60" x2="66" y2="38" 
        stroke="#333" 
        stroke-width="1.5"
        stroke-linecap="round"/>
  
  <!-- Top tube - parallel to ground, connects seat to handlebars -->
  <line x1="42" y1="38" x2="66" y2="38" 
        stroke="#333" 
        stroke-width="1.5"
        stroke-linecap="round"/>
  
  <!-- Fork -->
  <line x1="66" y1="38" x2="70" y2="60" 
        stroke="#333" 
        stroke-width="1.5"
        stroke-linecap="round"/>
  
  <!-- Seat stay - connects rear wheel to top tube/seat junction -->
  <line x1="26" y1="60" x2="42" y2="38" 
        stroke="#333" 
        stroke-width="1.5"
        stroke-linecap="round"/>
  
  <!-- Saddle -->
  <line x1="38" y1="30" x2="46" y2="30" 
        stroke="#333" 
        stroke-width="1.5"
        stroke-linecap="round"/>
  
  <!-- Handlebar stem -->
  <line x1="66" y1="38" x2="70" y2="34" 
        stroke="#333" 
        stroke-width="1.5"
        stroke-linecap="round"/>
  
  <!-- Drop handlebars - proper curve -->
  <path d="M 70 34 Q 72 34 72 36 L 72 38 Q 72 40 70 40" 
        fill="none"
        stroke="#333" 
        stroke-width="1.5"
        stroke-linecap="round"/>
  
  <!-- Road surface -->
  <line x1="8" y1="76" x2="88" y2="76" 
        stroke="#333" 
        stroke-width="1.5"
        stroke-linecap="round"/>
</svg>