<svg width="96" height="96" viewBox="0 0 96 96" xmlns="http://www.w3.org/2000/svg">
  <!-- Elegant boat hull sitting in water -->
  <path d="M 48 20 L 48 50 M 48 50 L 18 50 Q 18 62 48 66 Q 78 62 78 50 L 48 50" 
        fill="none" 
        stroke="#333" 
        stroke-width="1.5" 
        stroke-linejoin="round"
        stroke-linecap="round"/>
  
  <!-- Sail -->
  <path d="M 48 20 Q 66 32 66 44 L 48 44" 
        fill="none" 
        stroke="#333" 
        stroke-width="1.5" 
        stroke-linejoin="round"
        stroke-linecap="round"/>
  
  <!-- Water waves intersecting with boat -->
  <path d="M 12 58 Q 18 55 24 58 T 36 58 Q 42 55 48 58 T 60 58 Q 66 55 72 58 T 84 58" 
        fill="none" 
        stroke="#333" 
        stroke-width="1.5" 
        stroke-linecap="round"/>
  
  <path d="M 16 64 Q 22 61 28 64 T 40 64 Q 46 61 52 64 T 64 64 Q 70 61 76 64 T 88 64" 
        fill="none" 
        stroke="#333" 
        stroke-width="1.5" 
        stroke-linecap="round"/>
</svg>