<svg width="96" height="96" viewBox="0 0 96 96" xmlns="http://www.w3.org/2000/svg">
  <!-- Sports car profile with integrated wheel arches - larger -->
  <path d="M 8 48 L 16 48 Q 16 40 24 40 Q 32 40 32 48 L 56 48 Q 56 40 64 40 Q 72 40 72 48 L 88 48 L 88 48 Q 88 42 82 42 L 72 40 L 54 40 L 48 32 L 32 32 L 20 40 L 16 40 Q 10 40 8 42 Z" 
        fill="none" 
        stroke="#333" 
        stroke-width="1.5" 
        stroke-linejoin="round"
        stroke-linecap="round"/>
  
  <!-- Windshield -->
  <line x1="48" y1="32" x2="46" y2="40" 
        stroke="#333" 
        stroke-width="1.5"
        stroke-linecap="round"/>
  
  <!-- Rear window -->
  <line x1="32" y1="32" x2="34" y2="40" 
        stroke="#333" 
        stroke-width="1.5"
        stroke-linecap="round"/>
  
  <!-- Side window -->
  <path d="M 46 40 L 44 34 L 36 34 L 34 40 Z" 
        fill="none" 
        stroke="#333" 
        stroke-width="1.5" 
        stroke-linejoin="round"
        stroke-linecap="round"/>
  
  <!-- Front wheel (left side) -->
  <circle cx="24" cy="48" r="8" 
          fill="none" 
          stroke="#333" 
          stroke-width="2"/>
  <circle cx="24" cy="48" r="2" 
          fill="#333"/>
  
  <!-- Rear wheel (right side) -->
  <circle cx="64" cy="48" r="8" 
          fill="none" 
          stroke="#333" 
          stroke-width="2"/>
  <circle cx="64" cy="48" r="2" 
          fill="#333"/>
  
  <!-- Ground line -->
  <line x1="8" y1="56" x2="88" y2="56" 
        stroke="#333" 
        stroke-width="1.5"
        stroke-linecap="round"/>
</svg>