<svg width="96" height="96" viewBox="0 0 96 96" xmlns="http://www.w3.org/2000/svg">
  <!-- Simple plane shape centered and longer -->
  <path d="M 72 48 Q 74 48 74 50 Q 74 52 72 52 L 50 52 L 44 74 L 40 74 L 42 52 L 24 52 L 22 62 L 18 62 L 20 48 L 18 34 L 22 34 L 24 44 L 42 44 L 40 22 L 44 22 L 50 44 L 72 48" 
        fill="none" 
        stroke="#333" 
        stroke-width="1.5" 
        stroke-linejoin="round"
        stroke-linecap="round"/>
  
  <!-- Cabin/Cockpit -->
  <ellipse cx="60" cy="48" rx="5" ry="3" 
           fill="none" 
           stroke="#333" 
           stroke-width="1.5"/>
  
  <!-- Propeller -->
  <line x1="76" y1="42" x2="76" y2="58" 
        stroke="#333" 
        stroke-width="1.5"
        stroke-linecap="round"/>
  
  <!-- Propeller hub -->
  <circle cx="76" cy="50" r="1.5" 
          fill="#333"/>
  
  <!-- Front landing gear -->
  <line x1="56" y1="52" x2="56" y2="58" 
        stroke="#333" 
        stroke-width="1.5"
        stroke-linecap="round"/>
  <circle cx="56" cy="59" r="1.5" 
          fill="none"
          stroke="#333"
          stroke-width="1.5"/>
</svg>